<svg fill="none" xmlns="http://www.w3.org/2000/svg" viewBox="0 0 382 235">
    <path d="M38.132 0 0 38.575v174.699L11.972 235h58.085l12.858-21.726v-54.538h31.925l12.858-22.17V90.453h11.528v122.821L150.755 235h58.528l13.302-22.613V90.453h5.915v93.113l7.83 20.396L267.368 235h101.538l12.858-21.726V116.17l-9.755-6.651 3.548-7.094V36.802L336.538 0H38.132Z" fill="#fff"/>
    <path d="m364.079 111.279 4.486-10.386v-61.23L333.424 6.897H41.127L6.896 41.126V210.77l10.028 18.059h49.721l10.03-18.059v-59.116h34.377l10.028-18.058V83.712h24.544V210.77l10.029 18.059h49.949l10.028-18.059V83.712h18.579v98.272l7.363 17.587 29.274 29.258h94.436l10.028-18.059v-91.429l-11.231-8.062Z" fill="#322A2A"/>
    <path d="m60.568 141.333 5.786 66.755-5.786 10.419H23.005l-5.787-10.419L23.005 63.98l24.803-24.804h60.888l5.787 23.78-5.787 10.418H60.568v34.427h44.406l5.787 23.113-5.787 10.419H60.568Z" fill="#65ADB9"/>
    <path d="M233.398 73.39h-33.857l5.786 134.714-5.786 10.419H161.75l-5.787-10.419L161.75 73.39h-35.109l-5.787-10.419 5.787-23.78h106.757l5.786 23.78-5.786 10.419Z" fill="#9FC41E"/>
    <path d="m359.204 143.803 5.786 64.301-5.786 10.419h-84.099l-24.803-24.804-5.787-13.799 5.787-140.712h76.768l25.388 23.666 5.787 35.905-5.787 13.426-17.619 14.125 24.365 17.489v-.016Zm-43.87-33.516V73.39h-27.453v36.897h27.453Zm6.079 74.249v-40.717h-33.516v40.717h33.516Z" fill="#E65014"/>
    <path d="M17.218 45.402v162.704h49.136v-77.175h44.406V85.842H66.354V62.974h48.128V17.218h-69.08L17.218 45.402Z" fill="#0787C1"/>
    <path d="M120.838 62.973h35.109v145.133h49.363V62.973h33.874V17.218H120.838v45.755Z" fill="#798B2F"/>
    <path d="m344.412 109.85 13.832-11.102V44.151l-28.883-26.933h-84.83v162.687l28.2 28.184h92.275v-83.464l-20.578-14.791-.016.016Zm-50.745 52.696v-29.16h21.959v29.16h-21.959Zm0-74.25V62.974h15.88v25.324h-15.88Z" fill="#B11917"/>
    <path d="M60.567 125.144v77.175H23.004V47.791l24.804-24.804h60.887v34.199H60.567v34.426h44.406v33.516H60.567v.016ZM233.396 57.202h-33.857v145.116h-37.791V57.201H126.64V23.004h106.756v34.199ZM359.203 127.614v74.704h-84.099l-24.803-24.804V23.003h76.768l25.388 23.666v49.315l-17.619 14.125 24.365 17.489v.016Zm-43.87-33.516V57.202H287.88v36.896h27.453Zm6.079 74.249V127.63h-33.516v40.717h33.516Z" fill="#fff"/>
</svg>
